<svg width="100" height="131" viewBox="0 0 100 131" fill="none" xmlns="http://www.w3.org/2000/svg">
<path d="M50 131L6.69873 56H93.3013L50 131Z" fill="#07A852"/>
<circle cx="50" cy="50" r="48" fill="white" stroke="#07A852" stroke-width="4"/>
<path d="M52.2844 57.2947C51.9514 57.2947 51.6259 57.3865 51.3491 57.5584C51.0722 57.7303 50.8565 57.9747 50.729 58.2606C50.6016 58.5466 50.5683 58.8612 50.6332 59.1647C50.6982 59.4682 50.8585 59.747 51.094 59.9659C51.3294 60.1847 51.6294 60.3337 51.9559 60.3941C52.2825 60.4545 52.621 60.4235 52.9286 60.3051C53.2362 60.1866 53.4991 59.9861 53.6841 59.7288C53.8691 59.4714 53.9678 59.1689 53.9678 58.8594C53.9678 58.4445 53.7905 58.0465 53.4748 57.753C53.159 57.4596 52.7308 57.2947 52.2844 57.2947ZM80.1962 47.9063C81.6822 47.2349 83.2115 46.6496 84.7753 46.1538C85.0976 46.0605 85.3823 45.8794 85.5924 45.6338C85.8026 45.3883 85.9284 45.0897 85.9537 44.7768C85.9537 43.7754 85.9537 34.8564 80.8359 31.5079C79.7979 30.8459 78.5994 30.4336 77.3478 30.3079C76.0961 30.1823 74.8305 30.3473 73.6644 30.7881C73.395 30.8691 73.152 31.0119 72.9578 31.2034C72.7636 31.3948 72.6245 31.6287 72.5533 31.8834C72.1238 33.2424 71.5368 34.5541 70.8025 35.7952L64.7083 26.7198C64.5562 26.4994 64.3471 26.3181 64.1 26.1923C63.853 26.0666 63.5759 26.0004 63.2942 26H55.6513C55.2048 26 54.7766 26.1649 54.4609 26.4583C54.1452 26.7517 53.9678 27.1497 53.9678 27.5647C53.9678 27.9797 54.1452 28.3777 54.4609 28.6712C54.7766 28.9646 55.2048 29.1295 55.6513 29.1295H62.3852L68.715 38.5179C68.5138 38.5425 68.3101 38.5425 68.1089 38.5179C67.3009 38.7369 66.3581 38.2988 65.2471 37.2661L63.8666 35.983C63.0857 35.2541 62.1567 34.6768 61.1336 34.2847C60.1105 33.8925 59.0138 33.6932 57.9071 33.6985H53.3955C52.2888 33.6932 51.192 33.8925 50.169 34.2847C49.1459 34.6768 48.2169 35.2541 47.436 35.983L43.3957 39.7384L35.0457 37.2661C34.793 37.1909 34.5625 37.0624 34.3723 36.8906L32.5541 35.2006C31.6141 34.3305 30.3454 33.8364 29.0189 33.8237H16.9316C16.6751 33.8227 16.4217 33.8762 16.1909 33.9802C15.8542 34.1366 12.8239 35.6075 13.0596 38.0798C13.2953 40.552 16.9316 42.2732 19.9618 43.1808C23.5398 43.9835 26.952 45.3261 30.0626 47.1552L28.0425 49.471C26.2149 48.4428 24.1183 47.9015 21.982 47.9063C19.2475 47.8856 16.589 48.742 14.4547 50.3311C12.3205 51.9201 10.841 54.1446 10.2659 56.6295C9.69072 59.1143 10.055 61.7075 11.2974 63.9718C12.5397 66.236 14.5841 68.0328 17.0858 69.0592C19.5875 70.0856 22.3935 70.2788 25.0306 69.6061C27.6676 68.9335 29.9745 67.4363 31.5622 65.3668C33.1499 63.2974 33.9212 60.7824 33.7462 58.2459C33.5711 55.7094 32.4604 53.3066 30.6013 51.4426L32.7225 49.0016C35.1993 50.8706 37.0772 53.3352 38.1517 56.1272C39.2262 58.9192 39.4562 61.9317 38.8166 64.8367C38.7718 65.0645 38.7818 65.2986 38.8461 65.5223C38.9104 65.746 39.0272 65.9536 39.1883 66.1302C39.3493 66.3069 39.5505 66.4481 39.7773 66.5437C40.0042 66.6393 40.2511 66.6869 40.5001 66.6831H64.0686C64.5151 66.6831 64.9433 66.5183 65.259 66.2248C65.5747 65.9314 65.7521 65.5334 65.7521 65.1184C65.8758 63.0311 66.4482 60.988 67.4356 59.1098C67.4955 61.2243 68.2128 63.2774 69.5009 65.0212C70.789 66.765 72.5928 68.1248 74.6944 68.9363C76.7959 69.7479 79.1053 69.9765 81.3436 69.5946C83.5819 69.2126 85.6534 68.2364 87.3078 66.784C88.9621 65.3315 90.1286 63.4648 90.6663 61.4095C91.204 59.3542 91.09 57.1981 90.3379 55.2017C89.5858 53.2054 88.2279 51.4541 86.4282 50.1595C84.6286 48.8649 82.4641 48.0823 80.1962 47.9063ZM21.982 66.6831C19.7496 66.6831 17.6086 65.8588 16.03 64.3916C14.4515 62.9244 13.5646 60.9344 13.5646 58.8594C13.5646 56.7845 14.4515 54.7945 16.03 53.3273C17.6086 51.86 19.7496 51.0358 21.982 51.0358C23.3328 51.0415 24.6617 51.353 25.8539 51.9433L20.6689 57.8893C20.3876 58.213 20.2562 58.6273 20.3035 59.0411C20.3509 59.4548 20.5731 59.8341 20.9214 60.0956C21.2697 60.357 21.7154 60.4792 22.1605 60.4352C22.6057 60.3911 23.0138 60.1846 23.2951 59.8609L28.4802 53.9462C29.7118 55.3284 30.39 57.0647 30.3993 58.8594C30.3993 59.8869 30.1816 60.9042 29.7586 61.8534C29.3356 62.8026 28.7155 63.6651 27.9339 64.3916C27.1523 65.1181 26.2244 65.6944 25.2031 66.0876C24.1819 66.4808 23.0874 66.6831 21.982 66.6831ZM42.4193 63.5536C44.2374 45.0272 20.9046 40.1765 20.8372 40.1765C16.7296 38.8934 16.4265 37.892 16.4265 37.892C16.4265 37.892 16.9316 37.2661 17.3693 36.9531H29.0189C29.4629 36.959 29.8865 37.1277 30.1973 37.4226L32.0154 39.1125C32.575 39.6257 33.255 40.0114 34.0019 40.2391L43.362 43.1495C43.6571 43.2444 43.9751 43.2594 44.2791 43.193C44.5831 43.1265 44.8605 42.9812 45.0791 42.774L49.8265 38.3614C50.7748 37.4837 52.0572 36.9889 53.3955 36.9844H57.9071C59.2454 36.9889 60.5278 37.4837 61.4761 38.3614L62.8565 39.6445L55.7186 50.0656C55.7156 50.1177 55.7156 50.17 55.7186 50.2221C55.7072 50.3261 55.7072 50.431 55.7186 50.5351C55.7089 50.6287 55.7089 50.723 55.7186 50.8167C55.6698 51.0123 55.6698 51.2157 55.7186 51.4113C55.7143 51.4738 55.7143 51.5365 55.7186 51.5991L62.1831 63.5536H42.4193ZM63.6983 59.3602L59.2539 51.0358L65.9878 41.397C66.9937 41.7738 68.1034 41.8397 69.1527 41.5848C72.9237 40.6146 74.9775 35.5762 75.6845 33.4481C76.2508 33.2963 76.8462 33.2624 77.4282 33.349C78.0102 33.4355 78.5644 33.6404 79.0515 33.9489C80.4169 35.1765 81.3252 36.7772 81.644 38.5179H79.2198C78.7733 38.5179 78.3451 38.6827 78.0294 38.9762C77.7137 39.2696 77.5364 39.6676 77.5364 40.0826C77.5364 40.4976 77.7137 40.8956 78.0294 41.1891C78.3451 41.4825 78.7733 41.6474 79.2198 41.6474H82.3174C82.3174 42.3984 82.5194 43.0869 82.5531 43.6815C79.755 44.6093 77.0783 45.827 74.5735 47.3117C74.2888 47.4239 74.0438 47.6083 73.8664 47.8437C69.2656 50.6007 65.7097 54.6281 63.6983 59.3602ZM79.2198 66.6831C77.4047 66.6788 75.6397 66.1292 74.1881 65.1163C72.7365 64.1034 71.676 62.6815 71.1649 61.0626C70.6537 59.4438 70.7193 57.7147 71.3517 56.1333C71.9842 54.5519 73.1497 53.203 74.6745 52.2876L77.5364 59.4227C77.6037 59.6287 77.7161 59.8195 77.8664 59.9833C78.0167 60.147 78.2018 60.2802 78.41 60.3745C78.6182 60.4687 78.8451 60.522 79.0765 60.531C79.3079 60.54 79.5388 60.5046 79.7548 60.4269C79.9707 60.3492 80.1672 60.2309 80.3317 60.0794C80.4963 59.9279 80.6254 59.7465 80.7111 59.5465C80.7968 59.3465 80.8371 59.1323 80.8296 58.9171C80.8222 58.702 80.767 58.4906 80.6676 58.2961L77.8057 51.0358C78.9111 50.9495 80.0239 51.0664 81.0807 51.3798C82.1375 51.6933 83.1175 52.1971 83.9648 52.8626C84.812 53.528 85.51 54.3421 86.0188 55.2583C86.5276 56.1745 86.8372 57.1748 86.9301 58.2023C87.023 59.2297 86.8972 60.264 86.5599 61.2463C86.2227 62.2285 85.6806 63.1394 84.9647 63.9269C84.2487 64.7144 83.3729 65.3632 82.3872 65.8361C81.4015 66.309 80.3252 66.5968 79.2198 66.6831Z" fill="black"/>
</svg>
