<svg width="100" height="131" viewBox="0 0 100 131" fill="none" xmlns="http://www.w3.org/2000/svg">
<path d="M50 131L6.69873 56H93.3013L50 131Z" fill="#F20C0C"/>
<circle cx="50" cy="50" r="48" fill="white" stroke="#F00C0C" stroke-width="4"/>
<path d="M83.5445 35.2426L55.3588 26.7258C50.7177 25.3307 45.7701 25.9619 41.537 28.4892L29.138 35.993L11.0816 39.7449C9.73969 39.7448 8.45229 40.3326 7.50028 41.3799C6.54827 42.4272 6.00895 43.8491 6 45.3352V56.5908C6 58.0834 6.53538 59.5149 7.48835 60.5703C8.44133 61.6257 9.73384 62.2187 11.0816 62.2187H14.4693C14.8022 64.3947 15.8201 66.37 17.3424 67.7943C18.8647 69.2186 20.7932 70 22.7861 70C24.7789 70 26.7074 69.2186 28.2297 67.7943C29.7521 66.37 30.7699 64.3947 31.1029 62.2187H61.8971C62.2301 64.3947 63.2479 66.37 64.7703 67.7943C66.2926 69.2186 68.2211 70 70.2139 70C72.2068 70 74.1353 69.2186 75.6576 67.7943C77.1799 66.37 78.1978 64.3947 78.5307 62.2187H81.9184C83.2662 62.2187 84.5587 61.6257 85.5116 60.5703C86.4646 59.5149 87 58.0834 87 56.5908V40.4952C86.9852 39.3315 86.6449 38.2014 86.0261 37.2607C85.4072 36.32 84.5402 35.6149 83.5445 35.2426ZM66.9787 34.1545V35.9554H64.6073L63.2861 32.9915L66.9787 34.1545ZM43.2647 31.8284C46.5237 29.9023 50.3007 29.3428 53.9021 30.2526H54.5797H55.1556L59.0176 31.4157L60.9147 35.6553H36.4893L43.2647 31.8284ZM22.9385 66.2332C21.9335 66.2332 20.951 65.9031 20.1154 65.2847C19.2797 64.6663 18.6284 63.7874 18.2438 62.759C17.8592 61.7307 17.7585 60.5991 17.9546 59.5074C18.1507 58.4157 18.6346 57.4129 19.3453 56.6259C20.056 55.8388 20.9614 55.3028 21.9472 55.0857C22.9329 54.8685 23.9546 54.98 24.8831 55.4059C25.8117 55.8319 26.6053 56.5532 27.1637 57.4787C27.722 58.4042 28.0201 59.4923 28.0201 60.6054C28.0201 62.0979 27.4847 63.5294 26.5317 64.5848C25.5787 65.6403 24.2862 66.2332 22.9385 66.2332ZM70.3664 66.2332C69.3613 66.2332 68.3789 65.9031 67.5432 65.2847C66.7076 64.6663 66.0562 63.7874 65.6716 62.759C65.287 61.7307 65.1864 60.5991 65.3825 59.5074C65.5785 58.4157 66.0625 57.4129 66.7732 56.6259C67.4838 55.8388 68.3893 55.3028 69.375 55.0857C70.3607 54.8685 71.3825 54.98 72.311 55.4059C73.2395 55.8319 74.0332 56.5532 74.5915 57.4787C75.1499 58.4042 75.4479 59.4923 75.4479 60.6054C75.4479 62.0979 74.9126 63.5294 73.9596 64.5848C73.0066 65.6403 71.7141 66.2332 70.3664 66.2332ZM83.9172 47.2111H82.2233C81.7741 47.2111 81.3433 47.4088 81.0256 47.7606C80.7079 48.1124 80.5295 48.5895 80.5295 49.0871C80.5295 49.5846 80.7079 50.0617 81.0256 50.4136C81.3433 50.7654 81.7741 50.963 82.2233 50.963H83.9172V56.5908C83.9172 57.0884 83.7387 57.5655 83.4211 57.9173C83.1034 58.2691 82.6726 58.4668 82.2233 58.4668H78.5985C78.1662 56.4128 77.1191 54.5812 75.6275 53.27C74.1359 51.9589 72.2876 51.2452 70.3833 51.2452C68.479 51.2452 66.6307 51.9589 65.1391 53.27C63.6475 54.5812 62.6004 56.4128 62.1681 58.4668H31.1706C30.7384 56.4128 29.6913 54.5812 28.1997 53.27C26.7081 51.9589 24.8598 51.2452 22.9555 51.2452C21.0511 51.2452 19.2028 51.9589 17.7112 53.27C16.2197 54.5812 15.1726 56.4128 14.7403 58.4668H11.0816C10.6323 58.4668 10.2015 58.2691 9.88382 57.9173C9.56616 57.5655 9.3877 57.0884 9.3877 56.5908V50.963H11.0816C11.5308 50.963 11.9616 50.7654 12.2793 50.4136C12.5969 50.0617 12.7754 49.5846 12.7754 49.0871C12.7754 48.5895 12.5969 48.1124 12.2793 47.7606C11.9616 47.4088 11.5308 47.2111 11.0816 47.2111H9.3877V45.3352C9.40033 45.0622 9.46271 44.7948 9.57109 44.5492C9.67947 44.3036 9.83161 44.0848 10.0184 43.906C10.2051 43.7272 10.4226 43.5922 10.6577 43.5089C10.8928 43.4257 11.1407 43.396 11.3864 43.4217L29.7139 39.7073H68.6725C69.1218 39.7073 69.5526 39.5097 69.8703 39.1579C70.1879 38.8061 70.3664 38.3289 70.3664 37.8314V35.1675L82.6637 38.9194C82.9908 39.0137 83.2849 39.2141 83.5082 39.4949C83.7316 39.7757 83.874 40.1241 83.9172 40.4952V47.2111ZM58.5094 50.963H34.7955C34.3462 50.963 33.9154 51.1606 33.5977 51.5125C33.2801 51.8643 33.1016 52.3414 33.1016 52.8389C33.1016 53.3365 33.2801 53.8136 33.5977 54.1654C33.9154 54.5172 34.3462 54.7149 34.7955 54.7149H58.5094C58.9586 54.7149 59.3895 54.5172 59.7071 54.1654C60.0248 53.8136 60.2033 53.3365 60.2033 52.8389C60.2033 52.3414 60.0248 51.8643 59.7071 51.5125C59.3895 51.1606 58.9586 50.963 58.5094 50.963Z" fill="black"/>
</svg>
