<svg width="150" height="213" viewBox="0 0 150 213" fill="none" xmlns="http://www.w3.org/2000/svg">
<path d="M75 213L10.0481 111H139.952L75 213Z" fill="#07BB1C"/>
<path d="M147.5 77C147.5 114.704 115.172 145.5 75 145.5C34.8285 145.5 2.5 114.704 2.5 77C2.5 39.2958 34.8285 8.5 75 8.5C115.172 8.5 147.5 39.2958 147.5 77Z" fill="white" stroke="#07C13C" stroke-width="5"/>
<path d="M78 124H49.2727V30.9091H79.2727C88.303 30.9091 96.0303 32.7727 102.455 36.5C108.879 40.197 113.803 45.5151 117.227 52.4545C120.652 59.3636 122.364 67.6364 122.364 77.2727C122.364 86.9697 120.636 95.3182 117.182 102.318C113.727 109.288 108.697 114.652 102.091 118.409C95.4849 122.136 87.4545 124 78 124ZM60.5455 114H77.2727C84.9697 114 91.3485 112.515 96.4091 109.545C101.47 106.576 105.242 102.348 107.727 96.8636C110.212 91.3788 111.455 84.8485 111.455 77.2727C111.455 69.7576 110.227 63.2879 107.773 57.8636C105.318 52.4091 101.652 48.2273 96.7727 45.3182C91.8939 42.3788 85.8182 40.9091 78.5455 40.9091H60.5455V114Z" fill="black"/>
</svg>
