<svg width="150" height="213" viewBox="0 0 150 213" fill="none" xmlns="http://www.w3.org/2000/svg">
<path d="M75 213L10.0481 111H139.952L75 213Z" fill="#F80808"/>
<path d="M147.5 77C147.5 114.704 115.172 145.5 75 145.5C34.8285 145.5 2.5 114.704 2.5 77C2.5 39.2958 34.8285 8.5 75 8.5C115.172 8.5 147.5 39.2958 147.5 77Z" fill="white" stroke="#F81212" stroke-width="5"/>
<path d="M96.1818 54.1818C95.6364 49.5758 93.4242 46 89.5455 43.4545C85.6667 40.9091 80.9091 39.6364 75.2727 39.6364C71.1515 39.6364 67.5455 40.303 64.4545 41.6364C61.3939 42.9697 59 44.803 57.2727 47.1364C55.5758 49.4697 54.7273 52.1212 54.7273 55.0909C54.7273 57.5758 55.3182 59.7121 56.5 61.5C57.7121 63.2576 59.2576 64.7273 61.1364 65.9091C63.0152 67.0606 64.9848 68.0151 67.0455 68.7727C69.1061 69.5 71 70.0909 72.7273 70.5455L82.1818 73.0909C84.6061 73.7273 87.303 74.6061 90.2727 75.7273C93.2727 76.8485 96.1364 78.3788 98.8636 80.3182C101.621 82.2273 103.894 84.6818 105.682 87.6818C107.47 90.6818 108.364 94.3636 108.364 98.7273C108.364 103.758 107.045 108.303 104.409 112.364C101.803 116.424 97.9848 119.652 92.9545 122.045C87.9545 124.439 81.8788 125.636 74.7273 125.636C68.0606 125.636 62.2879 124.561 57.4091 122.409C52.5606 120.258 48.7424 117.258 45.9545 113.409C43.197 109.561 41.6364 105.091 41.2727 100H52.9091C53.2121 103.515 54.3939 106.424 56.4545 108.727C58.5455 111 61.1818 112.697 64.3636 113.818C67.5758 114.909 71.0303 115.455 74.7273 115.455C79.0303 115.455 82.8939 114.758 86.3182 113.364C89.7424 111.939 92.4545 109.97 94.4545 107.455C96.4545 104.909 97.4545 101.939 97.4545 98.5455C97.4545 95.4545 96.5909 92.9394 94.8636 91C93.1364 89.0606 90.8636 87.4848 88.0455 86.2727C85.2273 85.0606 82.1818 84 78.9091 83.0909L67.4545 79.8182C60.1818 77.7273 54.4242 74.7424 50.1818 70.8636C45.9394 66.9848 43.8182 61.9091 43.8182 55.6364C43.8182 50.4242 45.2273 45.8788 48.0455 42C50.8939 38.0909 54.7121 35.0606 59.5 32.9091C64.3182 30.7273 69.697 29.6364 75.6364 29.6364C81.6364 29.6364 86.9697 30.7121 91.6364 32.8636C96.303 34.9848 100 37.8939 102.727 41.5909C105.485 45.2879 106.939 49.4848 107.091 54.1818H96.1818Z" fill="black"/>
</svg>
